# xmcd
#
# Track frame offsets: 
#        150
#        14516
#        28426
#        42933
#        57431
#        71728
#        86027
#        100182
#        114360
#        128604
#        142210
#        155638
#        171169
#        186474
#        200600
#        215913
#        228136
#        241204
#        254852
#        268240
#        280902
#        296098
#        309299
#
# Disc length: 4293 seconds
#
# Revision: 1
# Processed by: cddbd v1.5.2PL0 Copyright (c) Steve Scherf et al.
# Submitted via: ExactAudioCopyFreeDBPlugin 1.0
#
DISCID=7110c317
DTITLE=Ma Rainey - Complete Recorded Works Vol. 2 (1924-1925)
DYEAR=1997
DGENRE=Blues
TTITLE0=Booze and Blues
TTITLE1=Toad Frog Blues
TTITLE2=Jealous Hearted Blues
TTITLE3=See See Rider Blues [take 1]
TTITLE4=See See Rider Blues [take 2]
TTITLE5=Jelly Bean Blues
TTITLE6=Countin' the Blues [take 1]
TTITLE7=Countin' the Blues [take 2]
TTITLE8=Cell Bound Blues
TTITLE9=Army Camp Harmony Blues [take 1]
TTITLE10=Army Camp Harmony Blues [take 2]
TTITLE11=Explaining the Blues [take 1]
TTITLE12=Explaining the Blues [take 2]
TTITLE13=Louisiana Hoo Doo Blues
TTITLE14=Goodbye Daddy Blues
TTITLE15=Stormy Sea Blues
TTITLE16=Rough and Tumble Blues
TTITLE17=Night Time Blues [take 1]
TTITLE18=Night Time Blues [take 2]
TTITLE19=Levee Camp Moan
TTITLE20=Four Day Honory Seat [take 1]
TTITLE21=Four Day Honory Seat [take 2]
TTITLE22=Memphis Bound Blues
EXTD=
EXTT0=
EXTT1=
EXTT2=
EXTT3=
EXTT4=
EXTT5=
EXTT6=
EXTT7=
EXTT8=
EXTT9=
EXTT10=
EXTT11=
EXTT12=
EXTT13=
EXTT14=
EXTT15=
EXTT16=
EXTT17=
EXTT18=
EXTT19=
EXTT20=
EXTT21=
EXTT22=
PLAYORDER=
